<?xml version="1.0" standalone="no"?>
<!DOCTYPE svg PUBLIC "-//W3C//DTD SVG 20010904//EN"
 "http://www.w3.org/TR/2001/REC-SVG-20010904/DTD/svg10.dtd">
<svg version="1.0" xmlns="http://www.w3.org/2000/svg"
 width="80.000000pt" height="80.000000pt" viewBox="0 0 80.000000 80.000000"
 preserveAspectRatio="xMidYMid meet">

<g transform="translate(0.000000,80.000000) scale(0.100000,-0.100000)"
fill="#1C47F5" stroke="none">
<path d="M345 685 c-28 -27 -32 -70 -10 -99 8 -11 15 -28 15 -39 0 -16 -7 -18
-51 -15 -40 2 -54 -1 -63 -14 -8 -13 -8 -23 0 -35 9 -14 23 -17 63 -15 l51 3
-6 -113 c-4 -62 -10 -117 -14 -122 -5 -5 -27 -2 -51 5 -63 20 -119 109 -69
109 31 0 25 35 -15 78 l-35 37 -35 -37 c-39 -42 -46 -78 -16 -78 14 0 20 -10
25 -42 14 -95 78 -162 164 -173 26 -4 59 -16 75 -26 27 -19 27 -19 55 0 15 10
48 22 74 26 86 11 150 78 164 173 5 32 11 42 25 42 30 0 23 36 -16 78 l-35 37
-35 -37 c-40 -43 -46 -78 -15 -78 50 0 -6 -89 -69 -109 -24 -7 -46 -10 -51 -5
-4 5 -10 60 -14 122 l-6 113 51 -3 c40 -2 54 1 63 15 8 12 8 22 0 35 -9 13
-23 16 -63 14 -44 -3 -51 -1 -51 15 0 11 7 28 15 39 37 48 -3 124 -65 124 -19
0 -40 -9 -55 -25z m95 -15 c25 -25 25 -51 2 -80 -12 -14 -17 -33 -14 -52 4
-29 5 -30 61 -26 45 2 56 0 56 -12 0 -12 -12 -14 -58 -12 l-58 4 6 -129 c4
-70 8 -134 10 -140 10 -33 130 5 159 49 9 13 19 38 22 56 10 52 27 38 19 -15
-13 -90 -52 -135 -130 -154 -27 -6 -65 -18 -83 -25 -28 -12 -37 -12 -60 0 -15
7 -49 17 -77 21 -80 11 -145 93 -145 183 0 33 17 27 24 -10 3 -18 13 -43 22
-56 29 -44 149 -82 159 -49 2 6 6 70 10 140 l6 129 -58 -4 c-46 -2 -58 0 -58
12 0 12 11 14 56 12 56 -4 57 -3 61 26 3 19 -2 38 -14 52 -10 12 -18 31 -18
41 0 25 35 59 60 59 11 0 29 -9 40 -20z m-250 -267 c22 -29 11 -45 -15 -23
-12 10 -18 10 -30 0 -8 -6 -19 -10 -25 -8 -12 4 25 58 40 58 5 0 18 -12 30
-27z m480 0 c22 -29 11 -45 -15 -23 -12 10 -18 10 -30 0 -8 -6 -19 -10 -25 -8
-12 4 25 58 40 58 5 0 18 -12 30 -27z"/>
<path d="M370 655 c-26 -32 13 -81 48 -59 34 22 22 74 -18 74 -10 0 -23 -7
-30 -15z m46 -16 c10 -17 -13 -36 -27 -22 -12 12 -4 33 11 33 5 0 12 -5 16
-11z"/>
<path d="M390 480 c0 -5 5 -10 10 -10 6 0 10 5 10 10 0 6 -4 10 -10 10 -5 0
-10 -4 -10 -10z"/>
<path d="M390 440 c0 -5 5 -10 10 -10 6 0 10 5 10 10 0 6 -4 10 -10 10 -5 0
-10 -4 -10 -10z"/>
<path d="M390 400 c0 -5 5 -10 10 -10 6 0 10 5 10 10 0 6 -4 10 -10 10 -5 0
-10 -4 -10 -10z"/>
<path d="M390 360 c0 -5 5 -10 10 -10 6 0 10 5 10 10 0 6 -4 10 -10 10 -5 0
-10 -4 -10 -10z"/>
<path d="M390 320 c0 -5 5 -10 10 -10 6 0 10 5 10 10 0 6 -4 10 -10 10 -5 0
-10 -4 -10 -10z"/>
<path d="M390 280 c0 -5 5 -10 10 -10 6 0 10 5 10 10 0 6 -4 10 -10 10 -5 0
-10 -4 -10 -10z"/>
<path d="M390 240 c0 -5 5 -10 10 -10 6 0 10 5 10 10 0 6 -4 10 -10 10 -5 0
-10 -4 -10 -10z"/>
<path d="M390 200 c0 -5 5 -10 10 -10 6 0 10 5 10 10 0 6 -4 10 -10 10 -5 0
-10 -4 -10 -10z"/>
<path d="M390 160 c0 -5 5 -10 10 -10 6 0 10 5 10 10 0 6 -4 10 -10 10 -5 0
-10 -4 -10 -10z"/>
</g>
</svg>
