
<svg version="1.1" id="Capa_1" xmlns="http://www.w3.org/2000/svg" xmlns:xlink="http://www.w3.org/1999/xlink" x="0px" y="0px"
	 viewBox="0 0 512.003 512.003" style="enable-background:new 0 0 512.003 512.003;" xml:space="preserve">
<g>
	<g fill="#152945">
		<path d="M494.427,17.572c-23.43-23.43-61.421-23.43-84.853,0c-15.663,15.665-20.607,37.778-15.328,57.755l-74.468,74.457
			l-31.82-31.818c-5.858-5.858-15.355-5.859-21.213,0l-21.215,21.213c-5.858,5.858-5.858,15.355,0,21.213l31.82,31.82L106.765,362.8
			l-10.378-13.859c-35.748-47.736-30.98-114.489,11.191-156.66L128.86,171l22.606,22.606c3.913,3.913,9.659,5.354,14.954,3.75
			c5.294-1.602,9.278-5.991,10.362-11.415l11.303-98.945c0.985-4.918-0.555-10.003-4.102-13.548
			c-3.545-3.547-8.63-5.087-13.548-4.102L71.49,80.651c-5.424,1.084-9.811,5.068-11.415,10.362
			c-1.602,5.295-0.161,11.041,3.75,14.954l22.608,22.606L44.007,171c-46.358,46.358-57.396,117.652-26.861,175.667
			c26.065,49.517,27.268,85.422,26.907,106.069c-0.07,4.065,1.505,7.983,4.378,10.864c2.869,2.878,6.786,4.468,10.851,4.406
			c20.808-0.319,56.554,0.782,106.082,26.86c57.995,30.538,129.28,19.468,175.627-26.88l42.426-42.426l22.608,22.606
			c3.911,3.911,9.659,5.354,14.954,3.75c5.294-1.602,9.278-5.991,10.362-11.415l11.303-98.947
			c0.985-4.916-0.555-10.001-4.102-13.548c-3.547-3.545-8.63-5.085-13.548-4.102l-98.947,11.305
			c-5.424,1.084-9.811,5.068-11.415,10.36c-1.602,5.295-0.161,11.043,3.75,14.954l22.608,22.608l-21.282,21.282
			c-42.169,42.169-108.924,46.939-156.658,11.19l-13.859-10.378l170.587-170.587l31.82,31.82c5.856,5.858,15.355,5.858,21.213,0
			l21.213-21.213c5.859-5.859,5.858-15.355,0-21.213l-31.82-31.82l74.468-74.457c19.977,5.277,42.092,0.335,57.755-15.33
			C517.859,78.996,517.859,41.004,494.427,17.572z M462.608,70.608c-5.858,5.858-15.355,5.858-21.213,0
			c-5.858-5.856-5.858-15.356,0-21.213c5.858-5.858,15.355-5.858,21.213,0C468.466,55.253,468.466,64.752,462.608,70.608z"/>
	</g>
</g>
<g>
</g>
<g>
</g>
<g>
</g>
<g>
</g>
<g>
</g>
<g>
</g>
<g>
</g>
<g>
</g>
<g>
</g>
<g>
</g>
<g>
</g>
<g>
</g>
<g>
</g>
<g>
</g>
<g>
</g>
</svg>
